TITLE ""
FILE "1Q_t_0359-0368.mp3" MP3
  TRACK 01 AUDIO
    TITLE "1Q_t_0359-0368_01"
    INDEX 01 00:00:00
  TRACK 02 AUDIO
    TITLE "1Q_t_0359-0368_02"
    INDEX 01 00:00:12
  TRACK 03 AUDIO
    TITLE "1Q_t_0359-0368_03"
    INDEX 01 00:01:41
  TRACK 04 AUDIO
    TITLE "1Q_t_0359-0368_04"
    INDEX 01 00:01:57
  TRACK 05 AUDIO
    TITLE "1Q_t_0359-0368_05"
    INDEX 01 00:03:40
  TRACK 06 AUDIO
    TITLE "1Q_t_0359-0368_06"
    INDEX 01 00:03:54
  TRACK 07 AUDIO
    TITLE "1Q_t_0359-0368_07"
    INDEX 01 00:09:25
  TRACK 08 AUDIO
    TITLE "1Q_t_0359-0368_08"
    INDEX 01 00:10:03
  TRACK 09 AUDIO
    TITLE "1Q_t_0359-0368_09"
    INDEX 01 00:11:14
  TRACK 10 AUDIO
    TITLE "1Q_t_0359-0368_10"
    INDEX 01 00:11:30
  TRACK 11 AUDIO
    TITLE "1Q_t_0359-0368_11"
    INDEX 01 00:13:54
  TRACK 12 AUDIO
    TITLE "1Q_t_0359-0368_12"
    INDEX 01 00:13:68
  TRACK 13 AUDIO
    TITLE "1Q_t_0359-0368_13"
    INDEX 01 00:18:04
  TRACK 14 AUDIO
    TITLE "1Q_t_0359-0368_14"
    INDEX 01 00:18:57
  TRACK 15 AUDIO
    TITLE "1Q_t_0359-0368_15"
    INDEX 01 00:20:31
  TRACK 16 AUDIO
    TITLE "1Q_t_0359-0368_16"
    INDEX 01 00:20:46
  TRACK 17 AUDIO
    TITLE "1Q_t_0359-0368_17"
    INDEX 01 00:22:16
  TRACK 18 AUDIO
    TITLE "1Q_t_0359-0368_18"
    INDEX 01 00:22:31
  TRACK 19 AUDIO
    TITLE "1Q_t_0359-0368_19"
    INDEX 01 00:29:37
  TRACK 20 AUDIO
    TITLE "1Q_t_0359-0368_20"
    INDEX 01 00:30:15
  TRACK 21 AUDIO
    TITLE "1Q_t_0359-0368_21"
    INDEX 01 00:31:64
  TRACK 22 AUDIO
    TITLE "1Q_t_0359-0368_22"
    INDEX 01 00:32:02
  TRACK 23 AUDIO
    TITLE "1Q_t_0359-0368_23"
    INDEX 01 00:33:51
  TRACK 24 AUDIO
    TITLE "1Q_t_0359-0368_24"
    INDEX 01 00:33:65
  TRACK 25 AUDIO
    TITLE "1Q_t_0359-0368_25"
    INDEX 01 00:40:61
  TRACK 26 AUDIO
    TITLE "1Q_t_0359-0368_26"
    INDEX 01 00:41:37
  TRACK 27 AUDIO
    TITLE "1Q_t_0359-0368_27"
    INDEX 01 00:42:60
  TRACK 28 AUDIO
    TITLE "1Q_t_0359-0368_28"
    INDEX 01 00:43:04
  TRACK 29 AUDIO
    TITLE "1Q_t_0359-0368_29"
    INDEX 01 00:44:31
  TRACK 30 AUDIO
    TITLE "1Q_t_0359-0368_30"
    INDEX 01 00:44:45
  TRACK 31 AUDIO
    TITLE "1Q_t_0359-0368_31"
    INDEX 01 00:52:58
  TRACK 32 AUDIO
    TITLE "1Q_t_0359-0368_32"
    INDEX 01 00:53:36
  TRACK 33 AUDIO
    TITLE "1Q_t_0359-0368_33"
    INDEX 01 00:54:47
  TRACK 34 AUDIO
    TITLE "1Q_t_0359-0368_34"
    INDEX 01 00:54:65
  TRACK 35 AUDIO
    TITLE "1Q_t_0359-0368_35"
    INDEX 01 00:56:70
  TRACK 36 AUDIO
    TITLE "1Q_t_0359-0368_36"
    INDEX 01 00:57:10
  TRACK 37 AUDIO
    TITLE "1Q_t_0359-0368_37"
    INDEX 01 01:02:54
  TRACK 38 AUDIO
    TITLE "1Q_t_0359-0368_38"
    INDEX 01 01:03:30
  TRACK 39 AUDIO
    TITLE "1Q_t_0359-0368_39"
    INDEX 01 01:04:59
  TRACK 40 AUDIO
    TITLE "1Q_t_0359-0368_40"
    INDEX 01 01:05:04
  TRACK 41 AUDIO
    TITLE "1Q_t_0359-0368_41"
    INDEX 01 01:06:05
  TRACK 42 AUDIO
    TITLE "1Q_t_0359-0368_42"
    INDEX 01 01:06:19
  TRACK 43 AUDIO
    TITLE "1Q_t_0359-0368_43"
    INDEX 01 01:13:13
  TRACK 44 AUDIO
    TITLE "1Q_t_0359-0368_44"
    INDEX 01 01:13:72
  TRACK 45 AUDIO
    TITLE "1Q_t_0359-0368_45"
    INDEX 01 01:15:10
  TRACK 46 AUDIO
    TITLE "1Q_t_0359-0368_46"
    INDEX 01 01:15:26
  TRACK 47 AUDIO
    TITLE "1Q_t_0359-0368_47"
    INDEX 01 01:19:08
  TRACK 48 AUDIO
    TITLE "1Q_t_0359-0368_48"
    INDEX 01 01:19:22
  TRACK 49 AUDIO
    TITLE "1Q_t_0359-0368_49"
    INDEX 01 01:24:13
  TRACK 50 AUDIO
    TITLE "1Q_t_0359-0368_50"
    INDEX 01 01:24:64
  TRACK 51 AUDIO
    TITLE "1Q_t_0359-0368_51"
    INDEX 01 01:25:65
  TRACK 52 AUDIO
    TITLE "1Q_t_0359-0368_52"
    INDEX 01 01:26:06
  TRACK 53 AUDIO
    TITLE "1Q_t_0359-0368_53"
    INDEX 01 01:28:70
  TRACK 54 AUDIO
    TITLE "1Q_t_0359-0368_54"
    INDEX 01 01:29:08
  TRACK 55 AUDIO
    TITLE "1Q_t_0359-0368_55"
    INDEX 01 01:34:54
  TRACK 56 AUDIO
    TITLE "1Q_t_0359-0368_56"
    INDEX 01 01:35:28
  TRACK 57 AUDIO
    TITLE "1Q_t_0359-0368_57"
    INDEX 01 01:36:40
  TRACK 58 AUDIO
    TITLE "1Q_t_0359-0368_58"
    INDEX 01 01:36:55
  TRACK 59 AUDIO
    TITLE "1Q_t_0359-0368_59"
    INDEX 01 01:39:58
  TRACK 60 AUDIO
    TITLE "1Q_t_0359-0368_60"
    INDEX 01 01:39:73
  TRACK 61 AUDIO
    TITLE "1Q_t_0359-0368_61"
    INDEX 01 01:44:16
